<svg width="162" height="70" viewBox="0 0 162 70" fill="none" xmlns="http://www.w3.org/2000/svg">
<g style="mix-blend-mode:darken" filter="url(#filter0_d)">
<path d="M25.2148 38.668C24.957 41.3984 23.9492 43.5312 22.1914 45.0664C20.4336 46.5898 18.0957 47.3516 15.1777 47.3516C13.1387 47.3516 11.3398 46.8711 9.78125 45.9102C8.23438 44.9375 7.03906 43.5605 6.19531 41.7793C5.35156 39.998 4.91211 37.9297 4.87695 35.5742V33.1836C4.87695 30.7695 5.30469 28.6426 6.16016 26.8027C7.01562 24.9629 8.24023 23.5449 9.83398 22.5488C11.4395 21.5527 13.291 21.0547 15.3887 21.0547C18.2129 21.0547 20.4863 21.8223 22.209 23.3574C23.9316 24.8926 24.9336 27.0605 25.2148 29.8613H20.7852C20.5742 28.0215 20.0352 26.6973 19.168 25.8887C18.3125 25.0684 17.0527 24.6582 15.3887 24.6582C13.4551 24.6582 11.9668 25.3672 10.9238 26.7852C9.89258 28.1914 9.36523 30.2598 9.3418 32.9902V35.2578C9.3418 38.0234 9.83398 40.1328 10.8184 41.5859C11.8145 43.0391 13.2676 43.7656 15.1777 43.7656C16.9238 43.7656 18.2363 43.373 19.1152 42.5879C19.9941 41.8027 20.5508 40.4961 20.7852 38.668H25.2148ZM54.9254 47H50.4957V35.627H39.0523V47H34.6051V21.4062H39.0523V32.0586H50.4957V21.4062H54.9254V47ZM70.2922 47H65.8625V21.4062H70.2922V47Z" fill="black"/>
<path d="M90.5633 37.1387H85.6062V47H81.159V21.4062H90.159C93.1121 21.4062 95.3914 22.0684 96.9969 23.3926C98.6023 24.7168 99.4051 26.6328 99.4051 29.1406C99.4051 30.8516 98.9891 32.2871 98.157 33.4473C97.3367 34.5957 96.1883 35.4805 94.7117 36.1016L100.46 46.7715V47H95.6961L90.5633 37.1387ZM85.6062 33.5703H90.1766C91.6766 33.5703 92.8484 33.1953 93.6922 32.4453C94.5359 31.6836 94.9578 30.6465 94.9578 29.334C94.9578 27.9629 94.5652 26.9023 93.7801 26.1523C93.0066 25.4023 91.8465 25.0156 90.2996 24.9922H85.6062V33.5703ZM123.35 41.041H113.436L111.362 47H106.739L116.407 21.4062H120.397L130.082 47H125.442L123.35 41.041ZM114.684 37.4551H122.102L118.393 26.8379L114.684 37.4551ZM157.631 43.6777C156.705 44.8848 155.422 45.7988 153.781 46.4199C152.141 47.041 150.277 47.3516 148.191 47.3516C146.047 47.3516 144.148 46.8652 142.496 45.8926C140.844 44.9199 139.566 43.5312 138.664 41.7266C137.773 39.9102 137.311 37.7949 137.275 35.3809V33.377C137.275 29.5098 138.201 26.4922 140.053 24.3242C141.904 22.1445 144.488 21.0547 147.805 21.0547C150.652 21.0547 152.914 21.7578 154.59 23.1641C156.266 24.5703 157.273 26.5977 157.613 29.2461H153.254C152.762 26.1641 150.975 24.623 147.893 24.623C145.9 24.623 144.383 25.3438 143.34 26.7852C142.309 28.2148 141.775 30.3184 141.74 33.0957V35.0645C141.74 37.8301 142.32 39.9805 143.48 41.5156C144.652 43.0391 146.275 43.8008 148.35 43.8008C150.623 43.8008 152.24 43.2852 153.201 42.2539V37.2441H147.928V33.8691H157.631V43.6777Z" fill="#E9B949"/>
</g>
<defs>
<filter id="filter0_d" x="-1" y="0" width="165" height="78" filterUnits="userSpaceOnUse" color-interpolation-filters="sRGB">
<feFlood flood-opacity="0" result="BackgroundImageFix"/>
<feColorMatrix in="SourceAlpha" type="matrix" values="0 0 0 0 0 0 0 0 0 0 0 0 0 0 0 0 0 0 127 0" result="hardAlpha"/>
<feOffset dy="4"/>
<feGaussianBlur stdDeviation="2"/>
<feColorMatrix type="matrix" values="0 0 0 0 0 0 0 0 0 0 0 0 0 0 0 0 0 0 0.25 0"/>
<feBlend mode="normal" in2="BackgroundImageFix" result="effect1_dropShadow"/>
<feBlend mode="normal" in="SourceGraphic" in2="effect1_dropShadow" result="shape"/>
</filter>
</defs>
</svg>
